<mxfile host="65bd71144e">
    <diagram id="XYlsWJQdyvT_L1KwykDr" name="Multi-CDef">
        <mxGraphModel dx="2235" dy="2846" grid="1" gridSize="10" guides="1" tooltips="1" connect="1" arrows="1" fold="1" page="1" pageScale="1" pageWidth="1100" pageHeight="850" background="#ffffff" math="0" shadow="0">
            <root>
                <mxCell id="0"/>
                <mxCell id="1" parent="0"/>
                <mxCell id="KVU3_tYiKikWnC46SpLr-3" style="edgeStyle=none;rounded=0;html=1;entryX=0;entryY=0.5;entryDx=0;entryDy=0;strokeColor=#006EAF;strokeWidth=4;fontSize=11;fontColor=#000000;fillColor=#1ba1e2;" parent="1" source="oCp1gQMjMsUQZgNSj64W-1" target="u0HBrz6UhigXzjsD_BjE-1" edge="1">
                    <mxGeometry relative="1" as="geometry"/>
                </mxCell>
                <mxCell id="oCp1gQMjMsUQZgNSj64W-1" value="&lt;span style=&quot;font-size: 16px;&quot;&gt;&lt;b&gt;Component&lt;/b&gt;&lt;/span&gt;&lt;br&gt;-reference-&lt;br&gt;&lt;b style=&quot;font-style: italic&quot;&gt;-attribute-&lt;/b&gt;" style="rounded=1;whiteSpace=wrap;html=1;fillColor=#b0e3e6;strokeColor=#0e8088;strokeWidth=4;fontColor=#000000;" parent="1" vertex="1">
                    <mxGeometry x="-1000" y="-1530" width="120" height="60" as="geometry"/>
                </mxCell>
                <mxCell id="KVU3_tYiKikWnC46SpLr-4" style="edgeStyle=none;rounded=0;html=1;entryX=0;entryY=0.5;entryDx=0;entryDy=0;strokeColor=#006EAF;strokeWidth=4;fontSize=11;fontColor=#000000;fillColor=#1ba1e2;" parent="1" source="oCp1gQMjMsUQZgNSj64W-2" target="u0HBrz6UhigXzjsD_BjE-1" edge="1">
                    <mxGeometry relative="1" as="geometry"/>
                </mxCell>
                <mxCell id="KVU3_tYiKikWnC46SpLr-6" style="edgeStyle=none;rounded=0;html=1;entryX=0;entryY=0.5;entryDx=0;entryDy=0;strokeColor=#006EAF;strokeWidth=4;fontSize=11;fontColor=#000000;fillColor=#1ba1e2;" parent="1" source="oCp1gQMjMsUQZgNSj64W-2" target="u0HBrz6UhigXzjsD_BjE-4" edge="1">
                    <mxGeometry relative="1" as="geometry"/>
                </mxCell>
                <mxCell id="oCp1gQMjMsUQZgNSj64W-2" value="&lt;font style=&quot;font-size: 16px&quot;&gt;&lt;b&gt;Component&lt;/b&gt;&lt;/font&gt;&lt;br&gt;-reference-&lt;br&gt;&lt;b style=&quot;font-style: italic&quot;&gt;-attribute-&lt;/b&gt;" style="rounded=1;whiteSpace=wrap;html=1;fillColor=#b0e3e6;strokeColor=#0e8088;strokeWidth=4;fontColor=#000000;" parent="1" vertex="1">
                    <mxGeometry x="-1000" y="-1390" width="120" height="60" as="geometry"/>
                </mxCell>
                <mxCell id="KVU3_tYiKikWnC46SpLr-5" style="edgeStyle=none;rounded=0;html=1;entryX=0;entryY=0.5;entryDx=0;entryDy=0;strokeColor=#006EAF;strokeWidth=4;fontSize=11;fontColor=#000000;fillColor=#1ba1e2;" parent="1" source="oCp1gQMjMsUQZgNSj64W-3" target="u0HBrz6UhigXzjsD_BjE-1" edge="1">
                    <mxGeometry relative="1" as="geometry"/>
                </mxCell>
                <mxCell id="KVU3_tYiKikWnC46SpLr-7" style="edgeStyle=none;rounded=0;html=1;entryX=0;entryY=0.5;entryDx=0;entryDy=0;strokeColor=#006EAF;strokeWidth=4;fontSize=11;fontColor=#000000;fillColor=#1ba1e2;" parent="1" source="oCp1gQMjMsUQZgNSj64W-3" target="u0HBrz6UhigXzjsD_BjE-4" edge="1">
                    <mxGeometry relative="1" as="geometry"/>
                </mxCell>
                <mxCell id="KVU3_tYiKikWnC46SpLr-8" style="edgeStyle=none;rounded=0;html=1;entryX=0;entryY=0.5;entryDx=0;entryDy=0;strokeColor=#006EAF;strokeWidth=4;fontSize=11;fontColor=#000000;fillColor=#1ba1e2;" parent="1" source="oCp1gQMjMsUQZgNSj64W-3" target="u0HBrz6UhigXzjsD_BjE-5" edge="1">
                    <mxGeometry relative="1" as="geometry"/>
                </mxCell>
                <mxCell id="oCp1gQMjMsUQZgNSj64W-3" value="&lt;span style=&quot;font-size: 16px;&quot;&gt;&lt;b&gt;Component&lt;br&gt;&lt;/b&gt;&lt;/span&gt;-reference-&lt;br&gt;&lt;b style=&quot;font-style: italic&quot;&gt;-attribute-&lt;/b&gt;" style="rounded=1;whiteSpace=wrap;html=1;fillColor=#b0e3e6;strokeColor=#0e8088;strokeWidth=4;fontColor=#000000;" parent="1" vertex="1">
                    <mxGeometry x="-1000" y="-1250" width="120" height="60" as="geometry"/>
                </mxCell>
                <mxCell id="KVU3_tYiKikWnC46SpLr-11" style="edgeStyle=none;rounded=0;html=1;entryX=0;entryY=0.5;entryDx=0;entryDy=0;strokeColor=#CC0066;strokeWidth=4;fontSize=11;fontColor=#000000;" parent="1" source="u0HBrz6UhigXzjsD_BjE-1" target="KVU3_tYiKikWnC46SpLr-1" edge="1">
                    <mxGeometry relative="1" as="geometry"/>
                </mxCell>
                <mxCell id="u0HBrz6UhigXzjsD_BjE-1" value="&lt;span style=&quot;font-size: 16px;&quot;&gt;&lt;b&gt;Component&lt;br&gt;Definition&lt;br&gt;&lt;/b&gt;&lt;/span&gt;" style="rounded=1;whiteSpace=wrap;html=1;fillColor=#FFCE9F;strokeColor=#FF8000;strokeWidth=4;fontColor=#000000;" parent="1" vertex="1">
                    <mxGeometry x="-800" y="-1460" width="120" height="60" as="geometry"/>
                </mxCell>
                <mxCell id="KVU3_tYiKikWnC46SpLr-10" style="edgeStyle=none;rounded=0;html=1;strokeColor=#CC0066;strokeWidth=4;fontSize=11;fontColor=#000000;" parent="1" source="u0HBrz6UhigXzjsD_BjE-4" target="KVU3_tYiKikWnC46SpLr-1" edge="1">
                    <mxGeometry relative="1" as="geometry"/>
                </mxCell>
                <mxCell id="u0HBrz6UhigXzjsD_BjE-4" value="&lt;span style=&quot;font-size: 16px;&quot;&gt;&lt;b&gt;Component&lt;br&gt;Definition&lt;br&gt;&lt;/b&gt;&lt;/span&gt;" style="rounded=1;whiteSpace=wrap;html=1;fillColor=#FFCE9F;strokeColor=#FF8000;strokeWidth=4;fontColor=#000000;" parent="1" vertex="1">
                    <mxGeometry x="-800" y="-1320" width="120" height="60" as="geometry"/>
                </mxCell>
                <mxCell id="KVU3_tYiKikWnC46SpLr-9" style="edgeStyle=none;rounded=0;html=1;entryX=0;entryY=0.5;entryDx=0;entryDy=0;strokeColor=#CC0066;strokeWidth=4;fontSize=11;fontColor=#000000;" parent="1" source="u0HBrz6UhigXzjsD_BjE-5" target="KVU3_tYiKikWnC46SpLr-1" edge="1">
                    <mxGeometry relative="1" as="geometry"/>
                </mxCell>
                <mxCell id="u0HBrz6UhigXzjsD_BjE-5" value="&lt;span style=&quot;font-size: 16px;&quot;&gt;&lt;b&gt;Component&lt;br&gt;Definition&lt;br&gt;&lt;/b&gt;&lt;/span&gt;" style="rounded=1;whiteSpace=wrap;html=1;fillColor=#FFCE9F;strokeColor=#FF8000;strokeWidth=4;fontColor=#000000;" parent="1" vertex="1">
                    <mxGeometry x="-800" y="-1170" width="120" height="60" as="geometry"/>
                </mxCell>
                <mxCell id="KVU3_tYiKikWnC46SpLr-12" style="edgeStyle=none;rounded=0;html=1;strokeColor=#CC0066;strokeWidth=4;fontSize=11;fontColor=#000000;" parent="1" source="KVU3_tYiKikWnC46SpLr-1" target="KVU3_tYiKikWnC46SpLr-2" edge="1">
                    <mxGeometry relative="1" as="geometry"/>
                </mxCell>
                <mxCell id="KVU3_tYiKikWnC46SpLr-1" value="&lt;span style=&quot;font-size: 16px&quot;&gt;&lt;b&gt;SSP&lt;/b&gt;&lt;/span&gt;" style="rounded=1;whiteSpace=wrap;html=1;fillColor=#B9E0A5;strokeColor=#006600;strokeWidth=4;fontColor=#000000;" parent="1" vertex="1">
                    <mxGeometry x="-540" y="-1320" width="120" height="60" as="geometry"/>
                </mxCell>
                <mxCell id="KVU3_tYiKikWnC46SpLr-2" value="&lt;span style=&quot;font-size: 16px;&quot;&gt;&lt;b&gt;Component&lt;br&gt;Definition&lt;br&gt;CRM&lt;br&gt;&lt;/b&gt;&lt;/span&gt;" style="rounded=1;whiteSpace=wrap;html=1;fillColor=#FFCE9F;strokeColor=#FF8000;strokeWidth=4;fontColor=#000000;" parent="1" vertex="1">
                    <mxGeometry x="-280" y="-1335" width="130" height="90" as="geometry"/>
                </mxCell>
            </root>
        </mxGraphModel>
    </diagram>
    <diagram id="LIVMKFAMAjtYc_gMIiob" name="Styles">
        <mxGraphModel dx="2286" dy="2846" grid="1" gridSize="10" guides="1" tooltips="1" connect="1" arrows="1" fold="1" page="1" pageScale="1" pageWidth="1100" pageHeight="850" background="#ffffff" math="0" shadow="0">
            <root>
                <mxCell id="0"/>
                <mxCell id="1" parent="0"/>
                <mxCell id="IINDfJwTlHbMu0usXTYg-1" value="&lt;font style=&quot;font-size: 16px&quot;&gt;&lt;b&gt;~Style 2~&lt;/b&gt;&lt;/font&gt;&lt;br&gt;-attribute-" style="rounded=1;whiteSpace=wrap;html=1;fillColor=#FFCE9F;strokeColor=#FF8000;strokeWidth=4;fontColor=#000000;" parent="1" vertex="1">
                    <mxGeometry x="-1090" y="-1200" width="120" height="60" as="geometry"/>
                </mxCell>
                <mxCell id="IINDfJwTlHbMu0usXTYg-2" value="&lt;font style=&quot;font-size: 16px&quot;&gt;&lt;b&gt;~Style 3~&lt;/b&gt;&lt;/font&gt;&lt;br&gt;-reference-&lt;br&gt;&lt;b style=&quot;font-style: italic&quot;&gt;-attribute-&lt;/b&gt;" style="rounded=1;whiteSpace=wrap;html=1;fillColor=#b0e3e6;strokeColor=#0e8088;strokeWidth=4;fontColor=#000000;" parent="1" vertex="1">
                    <mxGeometry x="-1090" y="-1130" width="120" height="60" as="geometry"/>
                </mxCell>
                <mxCell id="IINDfJwTlHbMu0usXTYg-3" value="&lt;span style=&quot;font-size: 16px&quot;&gt;&lt;b&gt;Style 1&lt;/b&gt;&lt;/span&gt;" style="rounded=1;whiteSpace=wrap;html=1;fillColor=#B9E0A5;strokeColor=#006600;strokeWidth=4;fontColor=#000000;" parent="1" vertex="1">
                    <mxGeometry x="-1090" y="-1270" width="120" height="60" as="geometry"/>
                </mxCell>
                <mxCell id="IINDfJwTlHbMu0usXTYg-4" value="&lt;span style=&quot;font-size: 16px&quot;&gt;&lt;b&gt;Style 4&lt;/b&gt;&lt;/span&gt;" style="rounded=1;whiteSpace=wrap;html=1;fillColor=#fad9d5;strokeColor=#ae4132;strokeWidth=4;labelBackgroundColor=none;fontColor=#990000;" parent="1" vertex="1">
                    <mxGeometry x="-1090" y="-1060" width="120" height="60" as="geometry"/>
                </mxCell>
                <mxCell id="IINDfJwTlHbMu0usXTYg-5" value="&lt;span style=&quot;font-size: 16px&quot;&gt;&lt;b&gt;Style 0&lt;/b&gt;&lt;/span&gt;" style="rounded=1;whiteSpace=wrap;html=1;fillColor=#E6E6E6;strokeColor=#999999;strokeWidth=4;fontColor=#000000;" parent="1" vertex="1">
                    <mxGeometry x="-1090" y="-1340" width="120" height="60" as="geometry"/>
                </mxCell>
                <mxCell id="IINDfJwTlHbMu0usXTYg-6" value="Process: Datastore&lt;br&gt;OSCAL: De-emphasized" style="text;html=1;align=left;verticalAlign=middle;resizable=0;points=[];autosize=1;strokeColor=none;fillColor=none;fontColor=#000000;" parent="1" vertex="1">
                    <mxGeometry x="-955" y="-1325" width="150" height="30" as="geometry"/>
                </mxCell>
                <mxCell id="IINDfJwTlHbMu0usXTYg-7" value="Process: Informative&lt;br&gt;OSCAL: Model" style="text;html=1;align=left;verticalAlign=middle;resizable=0;points=[];autosize=1;strokeColor=none;fillColor=none;fontColor=#000000;" parent="1" vertex="1">
                    <mxGeometry x="-955" y="-1255" width="120" height="30" as="geometry"/>
                </mxCell>
                <mxCell id="IINDfJwTlHbMu0usXTYg-8" value="Process: Action/Event&lt;br&gt;OSCAL: Action (e.g., Transform, Import)" style="text;html=1;align=left;verticalAlign=middle;resizable=0;points=[];autosize=1;strokeColor=none;fillColor=none;fontColor=#000000;" parent="1" vertex="1">
                    <mxGeometry x="-955" y="-1185" width="230" height="30" as="geometry"/>
                </mxCell>
                <mxCell id="IINDfJwTlHbMu0usXTYg-9" value="Process: External Entity&lt;br&gt;OSCAL: Model Detail or External" style="text;html=1;align=left;verticalAlign=middle;resizable=0;points=[];autosize=1;strokeColor=none;fillColor=none;fontColor=#000000;" parent="1" vertex="1">
                    <mxGeometry x="-955" y="-1115" width="190" height="30" as="geometry"/>
                </mxCell>
                <mxCell id="IINDfJwTlHbMu0usXTYg-10" value="Process: Notification Event&lt;br&gt;OSCAL: Action with Output" style="text;html=1;align=left;verticalAlign=middle;resizable=0;points=[];autosize=1;strokeColor=none;fillColor=none;fontColor=#000000;" parent="1" vertex="1">
                    <mxGeometry x="-955" y="-1045" width="160" height="30" as="geometry"/>
                </mxCell>
                <mxCell id="IINDfJwTlHbMu0usXTYg-11" value="General Usage/Intention" style="text;html=1;align=center;verticalAlign=middle;resizable=0;points=[];autosize=1;strokeColor=none;fillColor=none;fontColor=#000000;fontStyle=1" parent="1" vertex="1">
                    <mxGeometry x="-960" y="-1370" width="150" height="20" as="geometry"/>
                </mxCell>
                <mxCell id="-LADZYdgTkbEgffZ8JaN-1" value="&lt;span style=&quot;font-size: 16px&quot;&gt;&lt;b&gt;Style 4&lt;/b&gt;&lt;/span&gt;" style="rounded=1;whiteSpace=wrap;html=1;fillColor=#E5CCFF;strokeColor=#330066;strokeWidth=4;labelBackgroundColor=none;fontColor=#330066;" parent="1" vertex="1">
                    <mxGeometry x="-1090" y="-990" width="120" height="60" as="geometry"/>
                </mxCell>
            </root>
        </mxGraphModel>
    </diagram>
</mxfile>